<?xml version="1.0" encoding="iso-8859-1"?>
<!-- Uploaded to: SVG Repo, www.svgrepo.com, Generator: SVG Repo Mixer Tools -->
<svg height="800px" width="800px" version="1.1" id="Layer_1" xmlns="http://www.w3.org/2000/svg" xmlns:xlink="http://www.w3.org/1999/xlink" 
	 viewBox="0 0 512 512" xml:space="preserve">
<path style="fill:#37BC9B;" d="M490.688,405.344c0,5.875-4.781,10.656-10.688,10.656H32c-5.875,0-10.656-4.781-10.656-10.656
	V106.656C21.344,100.781,26.125,96,32,96h448c5.906,0,10.688,4.781,10.688,10.656V405.344z"/>
<path style="fill:#F5F7FA;" d="M383.594,175l-62.531-36.094L258.531,175v59.844l-41.219,23.781l-51.875-29.938l-62.531,36.094V337
	l62.531,36.094l51.875-29.938l51.875,29.938L331.719,337v-59.844l51.875-29.938V175z M206.625,324.688l-41.188,23.781
	l-41.219-23.781v-47.594l41.219-23.781l41.188,23.781V324.688z M269.188,348.469L228,324.688v-47.594l41.156-23.75l41.25,23.812
	v47.531L269.188,348.469z M362.25,234.906l-41.156,23.75l-41.219-23.812v-47.531l41.188-23.781l41.188,23.781L362.25,234.906
	L362.25,234.906z"/>
<path style="fill:#434A54;" d="M501.344,394.656H10.688C4.781,394.656,0,399.438,0,405.344C0,411.219,4.781,416,10.688,416h490.656
	c5.875,0,10.656-4.781,10.656-10.656C512,399.438,507.219,394.656,501.344,394.656z"/>
<path style="fill:#F5F7FA;" d="M437.344,373.344H352c-5.875,0-10.656,4.766-10.656,10.656s4.781,10.656,10.656,10.656h85.344
	c5.875,0,10.656-4.766,10.656-10.656S443.219,373.344,437.344,373.344z"/>
</svg>